<svg width="40" height="40" viewBox="0 0 40 40" fill="none" xmlns="http://www.w3.org/2000/svg">
<rect width="40" height="40" rx="8" fill="#193028" fill-opacity="0.08"/>
<path d="M30.4999 17C30.4999 17.1989 30.4209 17.3897 30.2803 17.5303C30.1396 17.671 29.9489 17.75 29.7499 17.75H28.2499V19.25C28.2499 19.4489 28.1709 19.6397 28.0303 19.7803C27.8896 19.921 27.6989 20 27.4999 20C27.301 20 27.1103 19.921 26.9696 19.7803C26.829 19.6397 26.7499 19.4489 26.7499 19.25V17.75H25.2499C25.051 17.75 24.8603 17.671 24.7196 17.5303C24.579 17.3897 24.4999 17.1989 24.4999 17C24.4999 16.8011 24.579 16.6103 24.7196 16.4697C24.8603 16.329 25.051 16.25 25.2499 16.25H26.7499V14.75C26.7499 14.5511 26.829 14.3603 26.9696 14.2197C27.1103 14.079 27.301 14 27.4999 14C27.6989 14 27.8896 14.079 28.0303 14.2197C28.1709 14.3603 28.2499 14.5511 28.2499 14.75V16.25H29.7499C29.9489 16.25 30.1396 16.329 30.2803 16.4697C30.4209 16.6103 30.4999 16.8011 30.4999 17ZM21.4999 13.25H22.2499V14C22.2499 14.1989 22.329 14.3897 22.4696 14.5303C22.6103 14.671 22.801 14.75 22.9999 14.75C23.1989 14.75 23.3896 14.671 23.5303 14.5303C23.6709 14.3897 23.7499 14.1989 23.7499 14V13.25H24.4999C24.6989 13.25 24.8896 13.171 25.0303 13.0303C25.1709 12.8897 25.2499 12.6989 25.2499 12.5C25.2499 12.3011 25.1709 12.1103 25.0303 11.9697C24.8896 11.829 24.6989 11.75 24.4999 11.75H23.7499V11C23.7499 10.8011 23.6709 10.6103 23.5303 10.4697C23.3896 10.329 23.1989 10.25 22.9999 10.25C22.801 10.25 22.6103 10.329 22.4696 10.4697C22.329 10.6103 22.2499 10.8011 22.2499 11V11.75H21.4999C21.301 11.75 21.1103 11.829 20.9696 11.9697C20.829 12.1103 20.7499 12.3011 20.7499 12.5C20.7499 12.6989 20.829 12.8897 20.9696 13.0303C21.1103 13.171 21.301 13.25 21.4999 13.25ZM28.3221 22.3438C28.4094 22.4454 28.4679 22.5686 28.4915 22.7005C28.5151 22.8324 28.5029 22.9682 28.4562 23.0938C27.9358 24.513 27.0662 25.7784 25.9278 26.773C24.7894 27.7676 23.4188 28.4594 21.9426 28.7846C20.4663 29.1098 18.9318 29.058 17.4809 28.6338C16.0299 28.2096 14.7092 27.4267 13.6406 26.3575C12.572 25.2883 11.7899 23.9671 11.3665 22.5159C10.9431 21.0647 10.8921 19.5303 11.2182 18.0542C11.5442 16.5781 12.2369 15.2079 13.2321 14.07C14.2274 12.9322 15.4932 12.0634 16.9128 11.5437C17.0377 11.498 17.1726 11.4863 17.3035 11.5099C17.4345 11.5334 17.5568 11.5914 17.658 11.6779C17.7591 11.7643 17.8355 11.8761 17.8791 12.0018C17.9228 12.1275 17.9323 12.2626 17.9065 12.3931C17.6437 13.7234 17.7125 15.0979 18.107 16.3953C18.5015 17.6927 19.2094 18.8729 20.1682 19.8317C21.1271 20.7906 22.3073 21.4985 23.6046 21.8929C24.902 22.2874 26.2765 22.3563 27.6068 22.0934C27.7375 22.0679 27.8727 22.0776 27.9984 22.1216C28.1241 22.1656 28.2359 22.2423 28.3221 22.3438ZM26.5043 23.7388C26.3365 23.7472 26.1678 23.7519 25.9999 23.7519C23.4146 23.7491 20.936 22.7208 19.108 20.8925C17.2801 19.0642 16.2522 16.5853 16.2499 14C16.2499 13.8322 16.2499 13.6634 16.2631 13.4956C15.2652 14.0699 14.4129 14.8661 13.7722 15.8227C13.1316 16.7793 12.7197 17.8706 12.5686 19.0119C12.4175 20.1533 12.5312 21.3141 12.9009 22.4044C13.2706 23.4948 13.8864 24.4854 14.7005 25.2995C15.5146 26.1136 16.5052 26.7293 17.5955 27.099C18.6859 27.4687 19.8467 27.5824 20.988 27.4313C22.1294 27.2802 23.2206 26.8684 24.1772 26.2277C25.1338 25.5871 25.9301 24.7348 26.5043 23.7369V23.7388Z" fill="#193028"/>
</svg>
