<svg width="40" height="40" viewBox="0 0 40 40" fill="none" xmlns="http://www.w3.org/2000/svg">
<rect width="40" height="40" rx="8" fill="white" fill-opacity="0.08"/>
<path d="M19.2 11.2V8.8C19.2 8.58783 19.2843 8.38434 19.4343 8.23431C19.5843 8.08429 19.7878 8 20 8C20.2122 8 20.4157 8.08429 20.5657 8.23431C20.7157 8.38434 20.8 8.58783 20.8 8.8V11.2C20.8 11.4122 20.7157 11.6157 20.5657 11.7657C20.4157 11.9157 20.2122 12 20 12C19.7878 12 19.5843 11.9157 19.4343 11.7657C19.2843 11.6157 19.2 11.4122 19.2 11.2ZM26.4 20C26.4 21.2658 26.0246 22.5032 25.3214 23.5556C24.6182 24.6081 23.6186 25.4284 22.4492 25.9128C21.2797 26.3972 19.9929 26.524 18.7514 26.277C17.5099 26.0301 16.3696 25.4205 15.4745 24.5255C14.5795 23.6304 13.9699 22.4901 13.723 21.2486C13.476 20.0071 13.6028 18.7203 14.0872 17.5508C14.5716 16.3814 15.3919 15.3818 16.4444 14.6786C17.4968 13.9754 18.7342 13.6 20 13.6C21.6968 13.6019 23.3236 14.2767 24.5234 15.4766C25.7233 16.6764 26.3981 18.3032 26.4 20ZM24.8 20C24.8 19.0506 24.5185 18.1226 23.9911 17.3333C23.4636 16.5439 22.714 15.9287 21.8369 15.5654C20.9598 15.2021 19.9947 15.107 19.0636 15.2922C18.1325 15.4774 17.2772 15.9346 16.6059 16.6059C15.9346 17.2772 15.4774 18.1325 15.2922 19.0636C15.107 19.9947 15.2021 20.9598 15.5654 21.8369C15.9287 22.714 16.5439 23.4636 17.3333 23.9911C18.1226 24.5185 19.0506 24.8 20 24.8C21.2726 24.7987 22.4928 24.2925 23.3927 23.3927C24.2925 22.4928 24.7987 21.2726 24.8 20ZM13.034 14.166C13.1841 14.3161 13.3877 14.4004 13.6 14.4004C13.8123 14.4004 14.0159 14.3161 14.166 14.166C14.3161 14.0159 14.4004 13.8123 14.4004 13.6C14.4004 13.3877 14.3161 13.1841 14.166 13.034L12.566 11.434C12.4159 11.2839 12.2123 11.1996 12 11.1996C11.7877 11.1996 11.5841 11.2839 11.434 11.434C11.2839 11.5841 11.1996 11.7877 11.1996 12C11.1996 12.2123 11.2839 12.4159 11.434 12.566L13.034 14.166ZM13.034 25.834L11.434 27.434C11.2839 27.5841 11.1996 27.7877 11.1996 28C11.1996 28.2123 11.2839 28.4159 11.434 28.566C11.5841 28.7161 11.7877 28.8004 12 28.8004C12.2123 28.8004 12.4159 28.7161 12.566 28.566L14.166 26.966C14.2403 26.8917 14.2993 26.8034 14.3395 26.7063C14.3797 26.6092 14.4004 26.5051 14.4004 26.4C14.4004 26.2949 14.3797 26.1908 14.3395 26.0937C14.2993 25.9966 14.2403 25.9083 14.166 25.834C14.0917 25.7597 14.0034 25.7007 13.9063 25.6605C13.8092 25.6203 13.7051 25.5996 13.6 25.5996C13.4949 25.5996 13.3908 25.6203 13.2937 25.6605C13.1966 25.7007 13.1083 25.7597 13.034 25.834ZM26.4 14.4C26.5051 14.4001 26.6092 14.3795 26.7063 14.3393C26.8034 14.2992 26.8917 14.2403 26.966 14.166L28.566 12.566C28.7161 12.4159 28.8004 12.2123 28.8004 12C28.8004 11.7877 28.7161 11.5841 28.566 11.434C28.4159 11.2839 28.2123 11.1996 28 11.1996C27.7877 11.1996 27.5841 11.2839 27.434 11.434L25.834 13.034C25.722 13.1459 25.6457 13.2885 25.6148 13.4438C25.5839 13.599 25.5997 13.76 25.6603 13.9062C25.7209 14.0525 25.8235 14.1775 25.9552 14.2654C26.0869 14.3533 26.2417 14.4001 26.4 14.4ZM26.966 25.834C26.8159 25.6839 26.6123 25.5996 26.4 25.5996C26.1877 25.5996 25.9841 25.6839 25.834 25.834C25.6839 25.9841 25.5996 26.1877 25.5996 26.4C25.5996 26.6123 25.6839 26.8159 25.834 26.966L27.434 28.566C27.5083 28.6403 27.5966 28.6993 27.6937 28.7395C27.7908 28.7797 27.8949 28.8004 28 28.8004C28.1051 28.8004 28.2092 28.7797 28.3063 28.7395C28.4034 28.6993 28.4917 28.6403 28.566 28.566C28.6403 28.4917 28.6993 28.4034 28.7395 28.3063C28.7797 28.2092 28.8004 28.1051 28.8004 28C28.8004 27.8949 28.7797 27.7908 28.7395 27.6937C28.6993 27.5966 28.6403 27.5083 28.566 27.434L26.966 25.834ZM12 20C12 19.7878 11.9157 19.5843 11.7657 19.4343C11.6157 19.2843 11.4122 19.2 11.2 19.2H8.8C8.58783 19.2 8.38434 19.2843 8.23431 19.4343C8.08429 19.5843 8 19.7878 8 20C8 20.2122 8.08429 20.4157 8.23431 20.5657C8.38434 20.7157 8.58783 20.8 8.8 20.8H11.2C11.4122 20.8 11.6157 20.7157 11.7657 20.5657C11.9157 20.4157 12 20.2122 12 20ZM20 28C19.7878 28 19.5843 28.0843 19.4343 28.2343C19.2843 28.3843 19.2 28.5878 19.2 28.8V31.2C19.2 31.4122 19.2843 31.6157 19.4343 31.7657C19.5843 31.9157 19.7878 32 20 32C20.2122 32 20.4157 31.9157 20.5657 31.7657C20.7157 31.6157 20.8 31.4122 20.8 31.2V28.8C20.8 28.5878 20.7157 28.3843 20.5657 28.2343C20.4157 28.0843 20.2122 28 20 28ZM31.2 19.2H28.8C28.5878 19.2 28.3843 19.2843 28.2343 19.4343C28.0843 19.5843 28 19.7878 28 20C28 20.2122 28.0843 20.4157 28.2343 20.5657C28.3843 20.7157 28.5878 20.8 28.8 20.8H31.2C31.4122 20.8 31.6157 20.7157 31.7657 20.5657C31.9157 20.4157 32 20.2122 32 20C32 19.7878 31.9157 19.5843 31.7657 19.4343C31.6157 19.2843 31.4122 19.2 31.2 19.2Z" fill="white"/>
</svg>
