<svg width="40" height="40" viewBox="0 0 40 40" xmlns="http://www.w3.org/2000/svg">
<path d="M14.6875 28.9766H10.3281V14.9609H14.6875V28.9766ZM12.4844 13.0859C11.125 13.0859 10 11.9141 10 10.5078C10 9.14844 11.125 8.02344 12.4844 8.02344C13.8906 8.02344 15.0156 9.14844 15.0156 10.5078C15.0156 11.9141 13.8906 13.0859 12.4844 13.0859ZM30.9531 28.9766H26.6406V22.1797C26.6406 20.5391 26.5938 18.4766 24.3438 18.4766C22.0938 18.4766 21.7656 20.2109 21.7656 22.0391V28.9766H17.4062V14.9609H21.5781V16.8828H21.625C22.2344 15.8047 23.6406 14.6328 25.75 14.6328C30.1562 14.6328 31 17.5391 31 21.2891V28.9766H30.9531Z" />
</svg>
