<?xml version="1.0" encoding="UTF-8"?>
<svg width="200px" height="200px" viewBox="0 0 200 200" version="1.1" xmlns="http://www.w3.org/2000/svg" xmlns:xlink="http://www.w3.org/1999/xlink">
    <style>
        #mark {
        fill: #000000;
        }
        @media (prefers-color-scheme: dark) {
        #mark {
            fill: #ffffff;
        }
        }
    </style>
    <title>Marc PArtridge</title>
    <defs></defs>
    <g id="Artboard" stroke="none" stroke-width="1" fill="none" fill-rule="evenodd">
        <g id="mark" transform="translate(-160.000000, 20.000000)" fill-rule="nonzero">
            <path d="M338.87056,46.7720634 C328.468437,27.5703229 305.008452,4.9200835 278.094305,0.514611937 C265.336557,-1.55788497 251.955928,2.70036004 242.199338,12.0096084 L54.3778901,199.236487 L54.1683753,199.457327 C53.9531981,199.695155 32.3108943,223.189116 5.1928952,226.40545 C1.93559538,226.878868 -0.349444681,229.864102 0.044058056,233.132019 C0.437560793,236.399937 3.36593623,238.757402 6.64251052,238.444052 C30.770678,235.578796 50.3461475,219.83688 58.7380611,211.999897 C79.0313477,230.701293 104.484963,242.859834 131.785083,246.892591 L131.785083,307.30078 C131.717534,309.510621 132.8579,311.58213 134.761213,312.707012 C136.664527,313.831894 139.02918,313.831894 140.932494,312.707012 C142.835807,311.58213 143.976173,309.510621 143.908624,307.30078 L143.908624,248.144017 C146.739904,248.313894 149.571184,248.432807 152.402464,248.432807 C164.414642,248.437762 176.376347,246.878781 187.98599,243.795171 L235.755345,310.805904 C236.983045,312.643196 239.112896,313.667317 241.314585,313.479018 C243.516274,313.29072 245.44129,311.919808 246.339176,309.900726 C247.237062,307.881644 246.965688,305.533998 245.630849,303.773005 L200.166156,239.961618 C253.173379,220.459762 291.08988,169.457085 291.08988,109.762379 C291.083745,100.400537 290.135203,91.0630904 288.2586,81.8912596 C312.471706,66.6929489 335.920366,55.2262652 336.163856,55.1073515 C337.650653,54.3845768 338.777554,53.0856664 339.283301,51.5117576 C339.789047,49.9378488 339.629716,48.2256315 338.842247,46.7720634 L338.87056,46.7720634 Z M278.179243,73.9523506 C275.968134,75.3816324 274.931792,78.0742914 275.614103,80.6171836 C277.857399,90.1698057 278.98799,99.94989 278.983327,109.762379 C278.983327,179.542104 222.216164,236.309267 152.442102,236.309267 C125.57749,236.375046 99.3996454,227.825072 77.7529371,211.914959 C82.9681548,212.29435 88.9817933,212.566153 95.5786755,212.566153 C123.92545,212.566153 162.883862,207.588763 193.835414,185.0178 C220.545709,165.544256 236.468827,136.359423 241.157427,98.2900329 C241.491473,96.1066179 240.612005,93.9142474 238.861634,92.5669953 C237.111263,91.2197432 234.766822,90.9306875 232.741629,91.8124347 C230.716435,92.6941818 229.330787,94.6072768 229.124487,96.8064422 C224.866242,131.393358 210.602254,157.763899 186.740227,175.187596 C148.614211,203.007752 95.148321,201.478861 71.6486976,199.145886 L250.664865,20.6903127 C257.697764,13.9858418 266.990025,10.9960102 276.146384,12.4852635 C295.761491,15.6789472 314.578178,31.5341148 324.974638,47.1854302 C315.699365,51.9476431 296.848703,61.970374 278.179243,73.9466881 L278.179243,73.9523506 Z" id="Shape"></path>
            <path d="M273.405705,32.4231367 C270.12964,35.8528667 270.25321,41.2887045 273.681744,44.5660219 C277.110277,47.8433394 282.54616,47.721754 285.824729,44.2944174 C289.103298,40.8670809 288.983698,35.4311543 285.557559,32.1513338 C282.126653,28.8712826 276.686522,28.9929631 273.405705,32.4231367 Z" id="Shape"></path>
        </g>
    </g>
</svg>