<svg width="547" height="38" viewBox="0 0 547 38" fill="none" xmlns="http://www.w3.org/2000/svg">
<path d="M526.869 11.8799C526.757 11.8799 526.655 11.924 526.561 12.0121C526.487 12.0826 526.449 12.1707 526.449 12.2765V13.4926C526.449 13.5983 526.487 13.6953 526.561 13.7834C526.655 13.8539 526.757 13.8892 526.869 13.8892H545.714C545.826 13.8892 545.919 13.9332 545.993 14.0213C546.087 14.0918 546.133 14.18 546.133 14.2857V23.8032C546.133 23.9089 546.087 24.0058 545.993 24.094C545.919 24.1645 545.826 24.1997 545.714 24.1997H526.869C526.757 24.1997 526.655 24.2438 526.561 24.3319C526.487 24.4024 526.449 24.4905 526.449 24.5963V25.8388C526.449 25.9446 526.487 26.0415 526.561 26.1296C526.655 26.2001 526.757 26.2354 526.869 26.2354H546.581C546.86 26.2354 547 26.3588 547 26.6055V37.6034C547 37.7092 546.953 37.8061 546.86 37.8942C546.786 37.9647 546.692 38 546.581 38H511.183C511.071 38 510.969 37.9647 510.876 37.8942C510.801 37.8061 510.764 37.7092 510.764 37.6034V0.485427C510.764 0.379678 510.801 0.291553 510.876 0.221054C510.969 0.132929 511.071 0.0888672 511.183 0.0888672H546.581C546.692 0.0888672 546.786 0.132929 546.86 0.221054C546.953 0.291553 547 0.379678 547 0.485427V11.4834C547 11.5891 546.953 11.686 546.86 11.7742C546.786 11.8447 546.692 11.8799 546.581 11.8799H526.869Z" fill="#F7F4F1"/>
<path d="M488.451 13.8892C486.4 13.8892 484.844 14.3298 483.781 15.211C482.737 16.0746 482.216 17.3524 482.216 19.0444C482.216 20.7188 482.747 21.9966 483.809 22.8778C484.872 23.7591 486.419 24.1997 488.451 24.1997H491.694C491.955 24.1997 492.085 24.0675 492.085 23.8032V16.3214C492.085 16.2156 492.123 16.1275 492.197 16.057C492.29 15.9689 492.393 15.9248 492.505 15.9248H506.764C506.876 15.9248 506.969 15.9689 507.044 16.057C507.137 16.1275 507.184 16.2156 507.184 16.3214V37.6034C507.184 37.7092 507.137 37.8061 507.044 37.8942C506.969 37.9647 506.876 38 506.764 38H486.941C480.286 38 475.132 36.3521 471.479 33.0562C467.825 29.7427 465.999 25.0721 465.999 19.0444C465.999 13.0167 467.825 8.35494 471.479 5.05909C475.132 1.74561 480.286 0.0888672 486.941 0.0888672H506.764C506.876 0.0888672 506.969 0.132929 507.044 0.221054C507.137 0.291553 507.184 0.379678 507.184 0.485427V13.4926C507.184 13.5983 507.137 13.6953 507.044 13.7834C506.969 13.8539 506.876 13.8892 506.764 13.8892H488.451Z" fill="#F7F4F1"/>
<path d="M443.295 0.0888672C449.95 0.0888672 455.104 1.74561 458.757 5.05909C462.411 8.35494 464.237 13.0167 464.237 19.0444C464.237 25.0721 462.411 29.7427 458.757 33.0562C455.104 36.3521 449.95 38 443.295 38H423.416C423.155 38 423.024 37.8766 423.024 37.6299V0.485427C423.024 0.221054 423.155 0.0888672 423.416 0.0888672H443.295ZM441.786 24.1997C443.836 24.1997 445.383 23.7679 446.427 22.9043C447.489 22.023 448.021 20.7364 448.021 19.0444C448.021 17.3701 447.489 16.0923 446.427 15.211C445.364 14.3298 443.817 13.8892 441.786 13.8892H438.514C438.253 13.8892 438.123 14.0213 438.123 14.2857V23.8296C438.123 24.0763 438.253 24.1997 438.514 24.1997H441.786Z" fill="#F7F4F1"/>
<path d="M418.997 0.0888672C419.109 0.0888672 419.202 0.132929 419.277 0.221054C419.37 0.291553 419.417 0.379678 419.417 0.485427V37.6034C419.417 37.7092 419.37 37.8061 419.277 37.8942C419.202 37.9647 419.109 38 418.997 38H404.094C403.983 38 403.88 37.9647 403.787 37.8942C403.712 37.8061 403.675 37.7092 403.675 37.6034V0.485427C403.675 0.379678 403.712 0.291553 403.787 0.221054C403.88 0.132929 403.983 0.0888672 404.094 0.0888672H418.997Z" fill="#F7F4F1"/>
<path d="M400.935 37.4184C401.028 37.5594 401.028 37.6916 400.935 37.8149C400.86 37.9383 400.739 38 400.571 38H384.355C384.187 38 384.056 37.9295 383.963 37.7885L379.434 30.4654C379.341 30.3244 379.219 30.2539 379.07 30.2539H376.358C376.097 30.2539 375.967 30.3772 375.967 30.624V37.6034C375.967 37.7092 375.92 37.8061 375.827 37.8942C375.752 37.9647 375.659 38 375.547 38H360.645C360.365 38 360.225 37.859 360.225 37.577V0.485427C360.225 0.221054 360.356 0.0888672 360.617 0.0888672H383.488C385.65 0.0888672 387.71 0.485427 389.667 1.27855C391.643 2.07167 393.339 3.14679 394.756 4.5039C396.191 5.84339 397.328 7.44726 398.167 9.3155C399.006 11.1661 399.425 13.1137 399.425 15.1581C399.425 17.3084 398.978 19.3352 398.083 21.2387C397.188 23.1422 395.949 24.7901 394.364 26.1825C394.215 26.3235 394.187 26.4821 394.28 26.6584L400.935 37.4184ZM380.049 18.7536C381.018 18.7536 381.866 18.4628 382.593 17.8812C383.339 17.2819 383.758 16.5417 383.851 15.6605C383.963 14.6382 383.656 13.757 382.929 13.0167C382.202 12.2589 381.307 11.8799 380.245 11.8799H376.386C376.274 11.8799 376.172 11.924 376.079 12.0121C376.004 12.0826 375.967 12.1707 375.967 12.2765V18.3306C375.967 18.6126 376.106 18.7536 376.386 18.7536H380.049Z" fill="#F7F4F1"/>
<path d="M358.261 0.0888672C358.373 0.0888672 358.466 0.132929 358.541 0.221054C358.634 0.309178 358.681 0.406115 358.681 0.511864V12.488C358.681 12.5937 358.634 12.6907 358.541 12.7788C358.466 12.8493 358.373 12.8845 358.261 12.8845H346.972C346.86 12.8845 346.758 12.9286 346.665 13.0167C346.571 13.0872 346.525 13.1753 346.525 13.2811V37.6034C346.525 37.7092 346.478 37.8061 346.385 37.8942C346.31 37.9647 346.217 38 346.105 38H331.287C331.175 38 331.072 37.9647 330.979 37.8942C330.886 37.8061 330.839 37.7092 330.839 37.6034V13.2811C330.839 13.1753 330.793 13.0872 330.699 13.0167C330.625 12.9286 330.532 12.8845 330.42 12.8845H320.103C319.991 12.8845 319.888 12.8493 319.795 12.7788C319.721 12.6907 319.683 12.5937 319.683 12.488V0.511864C319.683 0.406115 319.721 0.309178 319.795 0.221054C319.888 0.132929 319.991 0.0888672 320.103 0.0888672H358.261Z" fill="#F7F4F1"/>
<path d="M319.012 37.4184C319.105 37.5594 319.105 37.6916 319.012 37.8149C318.938 37.9383 318.817 38 318.649 38H302.432C302.264 38 302.134 37.9295 302.041 37.7885L297.511 30.4654C297.418 30.3244 297.297 30.2539 297.148 30.2539H294.435C294.174 30.2539 294.044 30.3772 294.044 30.624V37.6034C294.044 37.7092 293.997 37.8061 293.904 37.8942C293.83 37.9647 293.736 38 293.625 38H278.722C278.442 38 278.302 37.859 278.302 37.577V0.485427C278.302 0.221054 278.433 0.0888672 278.694 0.0888672H301.565C303.727 0.0888672 305.787 0.485427 307.744 1.27855C309.72 2.07167 311.416 3.14679 312.833 4.5039C314.268 5.84339 315.405 7.44726 316.244 9.3155C317.083 11.1661 317.502 13.1137 317.502 15.1581C317.502 17.3084 317.055 19.3352 316.16 21.2387C315.266 23.1422 314.026 24.7901 312.442 26.1825C312.293 26.3235 312.265 26.4821 312.358 26.6584L319.012 37.4184ZM298.126 18.7536C299.095 18.7536 299.944 18.4628 300.67 17.8812C301.416 17.2819 301.835 16.5417 301.929 15.6605C302.041 14.6382 301.733 13.757 301.006 13.0167C300.279 12.2589 299.384 11.8799 298.322 11.8799H294.463C294.352 11.8799 294.249 11.924 294.156 12.0121C294.081 12.0826 294.044 12.1707 294.044 12.2765V18.3306C294.044 18.6126 294.184 18.7536 294.463 18.7536H298.126Z" fill="#F7F4F1"/>
<path d="M276.233 37.4713C276.271 37.5946 276.243 37.718 276.149 37.8414C276.075 37.9471 275.963 38 275.814 38H260.995C260.771 38 260.632 37.9031 260.576 37.7092L259.989 35.6471C259.933 35.4356 259.793 35.3298 259.569 35.3298H246.484C246.279 35.3298 246.148 35.4356 246.092 35.6471L245.477 37.7092C245.421 37.9031 245.291 38 245.086 38H230.239C230.09 38 229.978 37.9471 229.904 37.8414C229.829 37.7356 229.81 37.6123 229.848 37.4713L242.01 0.379678C242.085 0.185804 242.225 0.0888672 242.43 0.0888672H263.651C263.838 0.0888672 263.968 0.185804 264.043 0.379678L276.233 37.4713ZM255.823 24.5434C255.953 24.5434 256.065 24.4993 256.158 24.4112C256.251 24.3055 256.279 24.1821 256.242 24.0411L253.474 15.1846L253.446 15.026C253.39 14.8321 253.25 14.7351 253.027 14.7351C252.822 14.7351 252.691 14.8321 252.635 15.026L252.607 15.1846L249.811 24.0411C249.774 24.1821 249.802 24.3055 249.895 24.4112C249.988 24.4993 250.1 24.5434 250.231 24.5434H255.823Z" fill="#F7F4F1"/>
<path d="M218.285 0.0888672C221.211 0.0888672 223.905 0.776238 226.365 2.15098C228.844 3.52572 230.783 5.39396 232.181 7.75569C233.597 10.1174 234.278 12.6818 234.222 15.449C234.166 18.1632 233.383 20.6571 231.873 22.9307C230.363 25.2043 228.35 26.9933 225.834 28.2975C223.336 29.6017 220.643 30.2539 217.753 30.2539H211.183C211.071 30.2539 210.968 30.2979 210.875 30.386C210.801 30.4565 210.763 30.5447 210.763 30.6504V37.6034C210.763 37.8678 210.624 38 210.344 38H195.441C195.33 38 195.227 37.9647 195.134 37.8942C195.059 37.8061 195.022 37.7092 195.022 37.6034V0.485427C195.022 0.379678 195.059 0.291553 195.134 0.221054C195.227 0.132929 195.33 0.0888672 195.441 0.0888672H218.285ZM214.846 18.7536C215.815 18.7536 216.663 18.4628 217.39 17.8812C218.136 17.2819 218.555 16.5417 218.648 15.6605C218.76 14.6382 218.452 13.757 217.725 13.0167C216.999 12.2589 216.104 11.8799 215.041 11.8799H211.183C211.071 11.8799 210.968 11.924 210.875 12.0121C210.801 12.0826 210.763 12.1707 210.763 12.2765V18.3306C210.763 18.6126 210.913 18.7536 211.211 18.7536H214.846Z" fill="#F7F4F1"/>
<path d="M162.477 24.1997H176.401C176.512 24.1997 176.606 24.2438 176.68 24.3319C176.773 24.4024 176.82 24.4905 176.82 24.5963V37.6034C176.82 37.7092 176.773 37.8061 176.68 37.8942C176.606 37.9647 176.512 38 176.401 38H160.967C154.312 38 149.158 36.3521 145.505 33.0562C141.851 29.7427 140.025 25.0721 140.025 19.0444C140.025 13.0167 141.851 8.35494 145.505 5.05909C149.158 1.74561 154.312 0.0888672 160.967 0.0888672H176.401C176.512 0.0888672 176.606 0.132929 176.68 0.221054C176.773 0.309178 176.82 0.406115 176.82 0.511864V13.4926C176.82 13.5983 176.773 13.6953 176.68 13.7834C176.606 13.8539 176.512 13.8892 176.401 13.8892H162.477C160.426 13.8892 158.87 14.3298 157.807 15.211C156.745 16.0746 156.213 17.3524 156.213 19.0444C156.213 20.7188 156.745 21.9966 157.807 22.8778C158.888 23.7591 160.445 24.1997 162.477 24.1997Z" fill="#F7F4F1"/>
<path d="M139.856 37.4184C139.949 37.5594 139.949 37.6916 139.856 37.8149C139.781 37.9383 139.66 38 139.492 38H123.276C123.108 38 122.977 37.9295 122.884 37.7885L118.355 30.4654C118.261 30.3244 118.14 30.2539 117.991 30.2539H115.279C115.018 30.2539 114.888 30.3772 114.888 30.624V37.6034C114.888 37.7092 114.841 37.8061 114.748 37.8942C114.673 37.9647 114.58 38 114.468 38H99.5655C99.2859 38 99.1461 37.859 99.1461 37.577V0.485427C99.1461 0.221054 99.2766 0.0888672 99.5376 0.0888672H122.409C124.571 0.0888672 126.631 0.485427 128.588 1.27855C130.564 2.07167 132.26 3.14679 133.677 4.5039C135.112 5.84339 136.249 7.44726 137.088 9.3155C137.927 11.1661 138.346 13.1137 138.346 15.1581C138.346 17.3084 137.899 19.3352 137.004 21.2387C136.109 23.1422 134.87 24.7901 133.285 26.1825C133.136 26.3235 133.108 26.4821 133.201 26.6584L139.856 37.4184ZM118.97 18.7536C119.939 18.7536 120.787 18.4628 121.514 17.8812C122.26 17.2819 122.679 16.5417 122.772 15.6605C122.884 14.6382 122.577 13.757 121.85 13.0167C121.123 12.2589 120.228 11.8799 119.165 11.8799H115.307C115.195 11.8799 115.093 11.924 114.999 12.0121C114.925 12.0826 114.888 12.1707 114.888 12.2765V18.3306C114.888 18.6126 115.027 18.7536 115.307 18.7536H118.97Z" fill="#F7F4F1"/>
<path d="M97.0771 37.4713C97.1144 37.5946 97.0864 37.718 96.9932 37.8414C96.9187 37.9471 96.8068 38 96.6577 38H81.8389C81.6152 38 81.4754 37.9031 81.4195 37.7092L80.8323 35.6471C80.7764 35.4356 80.6366 35.3298 80.413 35.3298H67.3277C67.1226 35.3298 66.9922 35.4356 66.9362 35.6471L66.3211 37.7092C66.2652 37.9031 66.1347 38 65.9297 38H51.0829C50.9338 38 50.822 37.9471 50.7474 37.8414C50.6729 37.7356 50.6542 37.6123 50.6915 37.4713L62.8541 0.379678C62.9286 0.185804 63.0684 0.0888672 63.2735 0.0888672H84.4951C84.6815 0.0888672 84.812 0.185804 84.8865 0.379678L97.0771 37.4713ZM76.6663 24.5434C76.7968 24.5434 76.9086 24.4993 77.0018 24.4112C77.095 24.3055 77.123 24.1821 77.0857 24.0411L74.3177 15.1846L74.2897 15.026C74.2338 14.8321 74.094 14.7351 73.8703 14.7351C73.6653 14.7351 73.5348 14.8321 73.4789 15.026L73.4509 15.1846L70.6549 24.0411C70.6176 24.1821 70.6456 24.3055 70.7388 24.4112C70.832 24.4993 70.9438 24.5434 71.0743 24.5434H76.6663Z" fill="#F7F4F1"/>
<path d="M48.1191 0.0888672C48.4174 0.0888672 48.5665 0.221054 48.5665 0.485427V37.577C48.5665 37.859 48.4174 38 48.1191 38H33.2444C32.9648 38 32.825 37.859 32.825 37.577V27.4515C32.825 27.2048 32.6945 27.0726 32.4336 27.0549C32.1913 27.0197 32.0328 27.1166 31.9583 27.3458L29.1343 37.6828C29.0784 37.8942 28.9386 38 28.7149 38H19.8516C19.6279 38 19.4881 37.8942 19.4322 37.6828L16.6082 27.3986C16.5337 27.1695 16.3659 27.0726 16.1049 27.1078C15.8626 27.1254 15.7415 27.2576 15.7415 27.5044V37.577C15.7415 37.859 15.5923 38 15.2941 38H0.4194C0.1398 38 0 37.859 0 37.577V0.485427C0 0.221054 0.1398 0.0888672 0.4194 0.0888672H18.2858C18.5095 0.0888672 18.6493 0.185804 18.7052 0.379678L23.8499 17.5904C23.9058 17.7843 24.0456 17.8812 24.2693 17.8812C24.4929 17.8812 24.6327 17.7843 24.6887 17.5904L29.8333 0.379678C29.8892 0.185804 30.029 0.0888672 30.2527 0.0888672H48.1191Z" fill="#F7F4F1"/>
</svg>
