<svg width="1207" height="88" viewBox="0 0 1207 88" fill="none" xmlns="http://www.w3.org/2000/svg">
<path d="M364.454 0C374.09 6.09932e-06 382.32 1.44498 389.142 4.33578C396.049 7.22659 401.336 11.3937 405.003 16.8352C408.669 22.2766 410.503 28.8237 410.503 36.4756V38.6435H383.641V36.4756C383.641 31.6293 382.276 28.1856 379.548 26.1451C376.819 24.0195 371.916 22.9565 364.838 22.9565C359.04 22.9565 354.52 23.5518 351.28 24.742C348.125 25.8472 345.907 27.9301 344.628 30.9907C343.349 33.9665 342.71 38.3034 342.71 44C342.71 49.6115 343.349 53.9475 344.628 57.0083C345.907 60.0692 348.125 62.1952 351.28 63.3855C354.52 64.4907 359.04 65.0435 364.838 65.0435C371.916 65.0435 376.819 64.0228 379.548 61.9824C382.276 59.8568 383.641 56.3707 383.641 51.5244V49.3565H410.503V51.5244C410.503 59.0914 408.669 65.6383 405.003 71.1648C401.336 76.6063 396.049 80.7724 389.142 83.6632C382.32 86.5541 374.09 88 364.454 88C354.563 88 346.078 86.2144 339 82.6435C331.922 78.9875 326.507 73.8857 322.755 67.3389C319.003 60.7071 317.127 52.9274 317.127 44C317.127 35.0727 319.003 27.3353 322.755 20.7886C326.507 14.1567 331.922 9.05495 339 5.48395C346.078 1.82804 354.563 0 364.454 0Z" fill="white"/>
<path d="M1077.31 0C1087.03 0 1095.35 1.3602 1102.26 4.08085C1109.16 6.80159 1114.45 10.7131 1118.12 15.8145C1121.78 20.8309 1123.62 26.8675 1123.62 33.9244V34.8176H1096.76V33.9244C1096.76 29.9283 1095.31 27.1222 1092.41 25.5068C1089.51 23.8063 1084.26 22.9565 1076.67 22.9565C1070.53 22.9565 1065.76 23.5517 1062.35 24.742C1059.02 25.8472 1056.68 27.9301 1055.31 30.9907C1053.95 33.9665 1053.27 38.3034 1053.27 44C1053.27 49.6114 1053.91 53.9475 1055.18 57.0083C1056.46 60.0692 1058.68 62.1952 1061.84 63.3855C1065.08 64.4907 1069.6 65.0435 1075.39 65.0435C1082.3 65.0435 1087.5 64.8303 1091 64.4052C1094.5 63.8951 1096.8 62.8754 1097.91 61.3451C1098.6 60.4022 1099.1 59.1689 1099.39 57.6466H1073.09V40.0466H1123.75V86.7244H1101.36V68.487H1100.08C1099.31 71.8028 1097.86 74.9487 1095.73 77.9244C1093.69 80.9001 1090.62 83.3233 1086.52 85.1938C1082.52 87.0643 1077.14 88 1070.41 88C1061.45 88 1053.78 86.2143 1047.38 82.6435C1040.99 78.9875 1036.08 73.8857 1032.67 67.3389C1029.35 60.7071 1027.68 52.9274 1027.68 44C1027.68 35.0725 1029.64 27.3354 1033.57 20.7886C1037.49 14.1568 1043.16 9.05494 1050.58 5.48395C1058 1.82796 1066.91 4.28703e-05 1077.31 0Z" fill="white"/>
<path d="M48.3505 36.7306L56.793 58.7938H58.4559L66.5138 36.7306L81.4801 1.27563H114.097V86.7244H90.0504V51.3969L90.9453 37.113H89.2823L84.4224 51.3969L71.6304 81.6228H42.4669L29.6759 51.3969L24.815 37.113H23.152L24.0479 51.3969V86.7244H0V1.27563H32.6172L48.3505 36.7306Z" fill="white"/>
<path fill-rule="evenodd" clip-rule="evenodd" d="M225.144 86.7244H197.516L190.999 70.9099H150.304L143.664 86.7244H116.675L153.641 1.27563H188.049L225.144 86.7244ZM164.386 37.3679L159.352 49.3565H182.117L177.177 37.3679L171.549 22.9565H169.886L164.386 37.3679Z" fill="white"/>
<path fill-rule="evenodd" clip-rule="evenodd" d="M277.732 1.27563C285.321 1.27563 291.675 2.29522 296.791 4.33578C301.907 6.37627 305.744 9.35239 308.303 13.2632C310.946 17.0892 312.269 21.8084 312.269 27.4197C312.269 31.926 311.458 35.8375 309.838 39.1534C308.303 42.3843 305.83 45.0205 302.419 47.0611C299.008 49.0166 294.574 50.3343 289.117 51.0145V52.2901C293.551 53.3954 296.706 55.0528 298.582 57.2632C300.543 59.3888 302.334 62.0675 303.954 65.2985L314.571 86.7244H286.814L276.581 65.8083C275.558 63.6827 274.492 62.0246 273.383 60.8342C272.275 59.6439 270.824 58.8365 269.034 58.4114C267.243 57.9013 264.77 57.6466 261.615 57.6466H251.766V86.7244H227.718V1.27563H277.732ZM251.766 39.7907H277.476C280.972 39.7907 283.445 39.2813 284.895 38.2611C286.345 37.2409 287.069 34.9024 287.069 31.2466C287.069 27.8457 286.345 25.5924 284.895 24.487C283.445 23.3817 280.972 22.829 277.476 22.829H251.766V39.7907Z" fill="white"/>
<path fill-rule="evenodd" clip-rule="evenodd" d="M500.019 1.27563C506.841 1.27566 512.725 2.55087 517.671 5.10155C522.617 7.56724 526.412 11.1808 529.055 15.942C531.784 20.6183 533.148 26.3577 533.148 33.1596C533.148 39.8763 531.784 45.6584 529.055 50.5046C526.412 55.2657 522.617 58.9219 517.671 61.4725C512.725 63.9382 506.841 65.171 500.019 65.171H476.612V86.7244H452.564V1.27563H500.019ZM476.612 43.6176H497.333C501.596 43.6176 504.624 42.9798 506.414 41.7046C508.29 40.4293 509.229 37.5807 509.229 33.1596C509.229 28.8234 508.29 26.0173 506.414 24.742C504.624 23.4667 501.596 22.829 497.333 22.829H476.612V43.6176Z" fill="white"/>
<path fill-rule="evenodd" clip-rule="evenodd" d="M627.537 86.7244H599.909L593.392 70.9099H552.697L546.057 86.7244H519.068L556.035 1.27563H590.443L627.537 86.7244ZM566.779 37.3679L561.746 49.3565H584.51L579.57 37.3679L573.942 22.9565H572.279L566.779 37.3679Z" fill="white"/>
<path fill-rule="evenodd" clip-rule="evenodd" d="M680.125 1.27563C687.714 1.27563 694.068 2.29523 699.184 4.33578C704.3 6.37626 708.138 9.35241 710.696 13.2632C713.339 17.0892 714.662 21.8084 714.662 27.4197C714.662 31.926 713.851 35.8375 712.231 39.1534C710.696 42.3843 708.223 45.0206 704.812 47.0611C701.401 49.0165 696.967 50.3343 691.51 51.0145V52.2901C695.944 53.3954 699.099 55.0528 700.975 57.2632C702.936 59.3888 704.727 62.0675 706.347 65.2985L716.964 86.7244H689.207L678.974 65.8083C677.951 63.6827 676.885 62.0246 675.776 60.8342C674.668 59.6439 673.218 58.8365 671.427 58.4114C669.636 57.9013 667.163 57.6466 664.008 57.6466H654.159V86.7244H630.112V1.27563H680.125ZM654.159 39.7907H679.869C683.365 39.7907 685.838 39.2812 687.288 38.2611C688.738 37.2409 689.463 34.9024 689.463 31.2466C689.463 27.8457 688.738 25.5924 687.288 24.487C685.838 23.3818 683.366 22.829 679.869 22.829H654.159V39.7907Z" fill="white"/>
<path d="M803.431 22.829H773.244V86.7244H749.196V22.829H718.881V1.27563H803.431V22.829Z" fill="white"/>
<path fill-rule="evenodd" clip-rule="evenodd" d="M859.252 1.27563C866.841 1.27563 873.195 2.29523 878.311 4.33578C883.427 6.37626 887.264 9.35241 889.823 13.2632C892.466 17.0892 893.789 21.8084 893.789 27.4197C893.789 31.926 892.978 35.8375 891.358 39.1534C889.823 42.3843 887.35 45.0206 883.939 47.0611C880.528 49.0165 876.094 50.3343 870.637 51.0145V52.2901C875.071 53.3954 878.226 55.0528 880.102 57.2632C882.063 59.3888 883.854 62.0675 885.474 65.2985L896.091 86.7244H868.333L858.101 65.8083C857.078 63.6827 856.012 62.0246 854.903 60.8342C853.795 59.6439 852.344 58.8365 850.554 58.4114C848.763 57.9013 846.29 57.6466 843.135 57.6466H833.286V86.7244H809.238V1.27563H859.252ZM833.286 39.7907H858.996C862.492 39.7907 864.965 39.2812 866.415 38.2611C867.865 37.2409 868.59 34.9024 868.59 31.2466C868.59 27.8457 867.865 25.5924 866.415 24.487C864.965 23.3818 862.492 22.829 858.996 22.829H833.286V39.7907Z" fill="white"/>
<path d="M923.974 86.7244H899.926V1.27563H923.974V86.7244Z" fill="white"/>
<path fill-rule="evenodd" clip-rule="evenodd" d="M976.423 1.27563C985.889 1.27563 994.075 2.97623 1000.98 6.37718C1007.89 9.69311 1013.22 14.5393 1016.97 20.9161C1020.72 27.2928 1022.6 34.9875 1022.6 44C1022.6 53.0125 1020.72 60.7072 1016.97 67.0839C1013.22 73.4607 1007.89 78.3494 1000.98 81.7503C994.075 85.0662 985.889 86.7244 976.423 86.7244H933.061V1.27563H976.423ZM957.108 65.171H976.423C981.54 65.171 985.59 64.7456 988.575 63.8954C991.56 63.0451 993.692 61.1323 994.971 58.1565C996.25 55.0956 996.89 50.3767 996.89 44C996.89 37.5384 996.25 32.8194 994.971 29.8435C993.692 26.8677 991.56 24.9549 988.575 24.1046C985.59 23.2544 981.54 22.829 976.423 22.829H957.108V65.171Z" fill="white"/>
<path d="M1207 1.27563V22.829H1154.94V33.0321H1205.08V54.458H1154.94V65.171H1207V86.7244H1130.89V1.27563H1207Z" fill="white"/>
</svg>
