<?xml version="1.0" encoding="UTF-8"?>
<svg width="349px" height="49px" viewBox="0 0 349 49" version="1.1" xmlns="http://www.w3.org/2000/svg" xmlns:xlink="http://www.w3.org/1999/xlink">
    <!-- Generator: Sketch 51.3 (57544) - http://www.bohemiancoding.com/sketch -->
    <title>Marc Partridge</title>
    <desc>Created with Sketch.</desc>
    <defs></defs>
    <g id="Page-1" stroke="none" stroke-width="1" fill="none" fill-rule="evenodd">
        <path d="M34.116,32.24 L35.844,12.8 L21.588,38 L18.804,38 L14.868,12.8 L8.244,32.384 C7.428,35.216 8.052,35.936 11.988,36.176 L11.604,38 L0.132,38 L0.516,36.176 C3.3,36.032 4.356,35.456 5.124,33.248 L13.14,9.632 C13.716,7.088 12.948,6.272 9.828,6.128 L10.212,4.304 L21.876,4.304 C21.732,5.408 21.828,6.224 21.972,7.28 L25.092,27.056 L36.084,7.28 C36.708,6.128 37.14,5.408 37.476,4.304 L49.188,4.304 L48.804,6.128 C45.636,6.272 44.532,7.088 44.004,9.632 L41.94,33.248 C41.844,35.6 42.756,36.032 45.396,36.176 L44.964,38 L28.74,38 L29.124,36.176 C32.772,35.936 33.732,35.504 34.116,32.24 Z M57.78,33.248 C60.564,33.248 65.124,26.336 67.908,15.92 C67.524,14.72 66.516,13.808 65.172,13.808 C60.276,13.808 55.86,22.88 55.86,29.936 C55.86,31.856 56.388,33.248 57.78,33.248 Z M63.3,34.256 C63.3,33.008 63.972,30.08 64.788,27.632 C61.668,33.92 58.116,38.48 53.844,38.48 C50.292,38.48 48.228,35.648 48.228,30.992 C48.228,21.68 55.428,11.888 64.308,11.888 C66.9,11.888 68.676,12.848 69.972,14.192 L74.916,11.744 L76.5,11.744 L74.676,17.888 L71.364,31.424 C71.172,32.336 70.98,33.056 70.98,33.44 C70.98,33.92 71.22,34.16 71.652,34.16 C72.516,34.16 73.716,33.056 75.636,30.704 L76.692,31.568 C73.428,36.128 71.076,38.48 67.668,38.48 C64.932,38.48 63.3,36.848 63.3,34.256 Z M92.052,11.888 L89.94,19.472 L87.78,26.24 C92.676,16.112 95.22,11.888 98.628,11.888 C100.644,11.888 101.796,13.28 101.796,15.344 C101.796,18.032 99.924,20.096 97.668,21.056 L97.284,21.056 C97.284,19.856 96.948,18.848 95.556,18.848 C92.052,18.848 87.876,26.768 85.476,38 L77.844,38 L83.172,16.832 L80.532,15.056 L80.772,13.952 L90.852,11.888 L92.052,11.888 Z M115.332,13.664 C111.636,13.664 108.276,21.824 108.276,28.112 C108.276,31.904 109.572,34.352 112.404,34.352 C114.66,34.352 116.436,33.104 118.788,30.32 L119.796,31.28 C117.3,35.408 113.604,38.48 109.044,38.48 C103.86,38.48 100.692,34.832 100.692,29.36 C100.692,20.768 107.556,11.888 116.292,11.888 C119.988,11.888 122.58,13.328 122.58,16.4 C122.58,18.416 121.284,19.712 119.364,20.192 L117.444,20.192 C117.78,16.736 117.636,13.664 115.332,13.664 Z M136.452,4.304 L151.86,4.304 C159.396,4.304 163.428,8 163.428,12.896 C163.428,20.912 156.42,24.8 147.156,24.8 L143.892,24.8 L142.212,32.624 C141.636,35.264 142.836,35.888 147.204,36.128 L146.82,38 L129.252,38 L129.684,36.176 C133.044,35.792 133.476,35.456 134.004,32.864 L139.044,9.44 C139.62,6.8 139.188,6.464 136.068,6.128 L136.452,4.304 Z M147.828,6.368 L144.372,22.544 L146.004,22.544 C151.092,22.544 155.412,19.376 155.412,12.896 C155.412,8.96 153.396,6.368 149.268,6.368 L147.828,6.368 Z M171.492,33.248 C174.276,33.248 178.836,26.336 181.62,15.92 C181.236,14.72 180.228,13.808 178.884,13.808 C173.988,13.808 169.572,22.88 169.572,29.936 C169.572,31.856 170.1,33.248 171.492,33.248 Z M177.012,34.256 C177.012,33.008 177.684,30.08 178.5,27.632 C175.38,33.92 171.828,38.48 167.556,38.48 C164.004,38.48 161.94,35.648 161.94,30.992 C161.94,21.68 169.14,11.888 178.02,11.888 C180.612,11.888 182.388,12.848 183.684,14.192 L188.628,11.744 L190.212,11.744 L188.388,17.888 L185.076,31.424 C184.884,32.336 184.692,33.056 184.692,33.44 C184.692,33.92 184.932,34.16 185.364,34.16 C186.228,34.16 187.428,33.056 189.348,30.704 L190.404,31.568 C187.14,36.128 184.788,38.48 181.38,38.48 C178.644,38.48 177.012,36.848 177.012,34.256 Z M205.764,11.888 L203.652,19.472 L201.492,26.24 C206.388,16.112 208.932,11.888 212.34,11.888 C214.356,11.888 215.508,13.28 215.508,15.344 C215.508,18.032 213.636,20.096 211.38,21.056 L210.996,21.056 C210.996,19.856 210.66,18.848 209.268,18.848 C205.764,18.848 201.588,26.768 199.188,38 L191.556,38 L196.884,16.832 L194.244,15.056 L194.484,13.952 L204.564,11.888 L205.764,11.888 Z M227.124,15.344 L223.284,30.608 C222.996,31.712 222.9,32.432 222.9,33.008 C222.9,33.824 223.236,34.352 224.1,34.352 C225.588,34.352 227.22,33.248 229.908,30.128 L231.012,30.944 C227.46,35.888 224.148,38.48 220.404,38.48 C217.284,38.48 215.412,36.416 215.412,33.68 C215.412,32.624 215.508,31.664 215.844,30.272 L219.54,15.344 L216.564,15.344 L216.948,13.856 C221.076,12.56 225.012,9.488 227.556,6.176 L229.332,6.176 L227.7,12.992 L232.98,12.992 L232.404,15.344 L227.124,15.344 Z M246.468,11.888 L244.356,19.472 L242.196,26.24 C247.092,16.112 249.636,11.888 253.044,11.888 C255.06,11.888 256.212,13.28 256.212,15.344 C256.212,18.032 254.34,20.096 252.084,21.056 L251.7,21.056 C251.7,19.856 251.364,18.848 249.972,18.848 C246.468,18.848 242.292,26.768 239.892,38 L232.26,38 L237.588,16.832 L234.948,15.056 L235.188,13.952 L245.268,11.888 L246.468,11.888 Z M266.292,9.344 C263.796,9.344 262.212,7.568 262.212,5.504 C262.212,3.2 263.94,1.184 266.628,1.184 C269.124,1.184 270.756,2.912 270.756,5.024 C270.756,7.328 268.98,9.344 266.292,9.344 Z M256.5,30.368 L259.908,16.832 L257.316,15.056 L257.556,13.952 L267.588,11.888 L268.836,11.888 L263.892,31.424 C263.652,32.336 263.508,33.056 263.508,33.44 C263.508,33.92 263.748,34.16 264.18,34.16 C265.044,34.16 266.292,33.056 268.164,30.704 L269.22,31.568 C265.956,36.128 263.604,38.48 260.244,38.48 C257.412,38.48 255.972,36.704 255.972,34.352 C255.972,33.104 256.116,32.048 256.5,30.368 Z M280.452,33.248 C283.284,33.248 288.036,26.288 290.724,15.92 C290.388,14.72 289.332,13.808 287.988,13.808 C282.996,13.808 278.58,23.072 278.532,29.792 C278.532,31.76 279.012,33.248 280.452,33.248 Z M291.444,13.136 L293.364,5.072 L290.676,3.68 L290.964,2.48 L300.804,0.416 L302.004,0.416 L294.468,31.424 C294.228,32.336 294.036,33.056 294.036,33.44 C294.036,33.92 294.276,34.16 294.708,34.16 C295.62,34.16 296.82,33.056 298.74,30.704 L299.748,31.568 C296.532,36.128 294.18,38.48 290.772,38.48 C287.988,38.48 286.404,36.848 286.404,34.256 C286.404,33.008 287.124,29.84 287.94,27.392 C284.82,33.68 280.788,38.48 276.564,38.48 C273.012,38.48 270.9,35.648 270.9,30.992 C270.9,21.68 278.244,11.888 287.028,11.888 C288.804,11.888 290.148,12.272 291.444,13.136 Z M324.228,19.328 C324.228,25.472 318.516,29.264 311.796,29.264 C310.452,29.264 309.204,29.072 308.1,28.736 C307.284,29.216 306.804,29.792 306.804,30.416 C306.804,31.184 307.476,31.424 308.292,31.664 L316.692,33.728 C320.676,34.64 323.46,36.272 323.46,39.824 C323.46,45.488 317.028,48.704 309.012,48.704 C302.628,48.704 296.676,46.304 296.676,42.128 C296.676,38.912 300.468,37.616 303.78,37.232 C302.628,36.368 302.052,35.168 302.052,33.776 C302.052,31.232 303.924,29.456 306.852,28.208 C304.452,26.96 303.012,24.704 303.012,21.68 C303.012,15.68 308.676,11.888 315.348,11.888 C316.836,11.888 318.18,12.176 319.38,12.656 L328.308,12.368 L327.396,15.44 L325.188,15.44 L322.596,15.008 C323.652,16.256 324.228,17.792 324.228,19.328 Z M314.004,40.784 L304.692,38.144 C302.82,38.96 301.716,40.16 301.716,41.936 C301.716,44.768 304.788,46.688 309.396,46.688 C314.004,46.688 316.884,45.344 316.884,43.232 C316.884,41.792 315.876,41.312 314.004,40.784 Z M317.22,17.504 C317.22,15.44 316.692,13.664 315.06,13.664 C312.42,13.664 309.972,18.416 309.972,23.696 C309.972,25.76 310.5,27.584 312.132,27.584 C314.772,27.584 317.22,22.784 317.22,17.504 Z M348.996,17.168 C348.996,22.832 342.324,25.04 334.068,26.432 C334.02,26.816 334.02,27.248 334.02,27.632 C334.02,31.904 335.892,34.208 339.06,34.208 C341.604,34.208 343.716,32.816 346.068,30.08 L347.076,30.992 C343.908,35.792 340.164,38.48 335.22,38.48 C329.988,38.48 326.484,34.784 326.484,29.072 C326.484,20.48 333.348,11.888 342.18,11.888 C346.836,11.888 348.996,14.288 348.996,17.168 Z M341.364,13.712 C338.1,13.712 335.076,19.616 334.26,24.944 C340.308,23.504 343.284,20.48 343.284,16.16 C343.284,14.72 342.708,13.712 341.364,13.712 Z" id="Marc-Partridge" fill="#F4CCD6"></path>
    </g>
</svg>