<svg id="Layer_1" data-name="Layer 1" xmlns="http://www.w3.org/2000/svg" viewBox="0 0 600 600"><defs><style>.cls-1{fill:#fff;}</style></defs><title>marcpartridge</title><path class="cls-1" d="M598.71,105.91C580.34,72,538.91,32,491.38,24.22c-22.53-3.66-46.16,3.86-63.39,20.3L96.3,375.16l-.37.39c-.38.42-38.6,41.91-86.49,47.59A10.71,10.71,0,0,0,12,444.4c42.61-5.06,77.18-32.86,92-46.7a242.69,242.69,0,0,0,129,61.62V566a10.71,10.71,0,1,0,21.41,0V461.53c5,.3,10,.51,15,.51a244.4,244.4,0,0,0,62.84-8.19l84.36,118.34a10.71,10.71,0,1,0,17.44-12.42L353.76,447.08c93.61-34.44,160.57-124.51,160.57-229.93a246.35,246.35,0,0,0-5-49.22c42.76-26.84,84.17-47.09,84.6-47.3a10.7,10.7,0,0,0,4.73-14.72Zm-107.18,48A10.71,10.71,0,0,0,487,165.68a224.67,224.67,0,0,1,5.95,51.47c0,123.23-100.25,223.48-223.47,223.48a221.8,221.8,0,0,1-131.9-43.08c9.21.67,19.83,1.15,31.48,1.15,50.06,0,118.86-8.79,173.52-48.65,47.17-34.39,75.29-85.93,83.57-153.16a10.71,10.71,0,1,0-21.25-2.62c-7.52,61.08-32.71,107.65-74.85,138.42C262.72,381.82,168.3,379.12,126.8,375L442.94,59.85c12.42-11.84,28.83-17.12,45-14.49C522.58,51,555.81,79,574.17,106.64,557.79,115.05,524.5,132.75,491.53,153.9Z"/><path class="cls-1" d="M483.1,80.57a15.17,15.17,0,1,0,21.46-.48A15.18,15.18,0,0,0,483.1,80.57Z"/></svg>