<?xml version="1.0" encoding="UTF-8"?>
<svg width="349px" height="50px" viewBox="0 0 349 50" version="1.1" xmlns="http://www.w3.org/2000/svg" xmlns:xlink="http://www.w3.org/1999/xlink">
    <!-- Generator: Sketch 51.3 (57544) - http://www.bohemiancoding.com/sketch -->
    <title>Marc-Partridge</title>
    <desc>Created with Sketch.</desc>
    <defs></defs>
    <g id="Page-1" stroke="none" stroke-width="1" fill="none" fill-rule="evenodd">
        <path d="M34,32.8 L35.7,13.4 L21.5,38.6 L18.7,38.6 L14.8,13.4 L8.1,33 C7.3,35.8 7.9,36.6 11.8,36.8 L11.4,38.6 L0,38.6 L0.4,36.8 C3.2,36.6 4.2,36 5,33.8 L13,10.2 C13.6,7.7 12.8,6.8 9.7,6.7 L10.1,4.9 L21.8,4.9 C21.7,6 21.8,6.8 21.9,7.9 L25,27.6 L36,7.9 C36.6,6.7 37.1,6 37.4,4.9 L49.1,4.9 L48.7,6.7 C45.5,6.8 44.4,7.7 43.9,10.2 L41.8,33.8 C41.7,36.2 42.6,36.6 45.3,36.7 L44.9,38.5 L28.6,38.5 L29,36.7 C32.6,36.5 33.6,36.1 34,32.8 Z M57.6,33.8 C60.4,33.8 64.9,26.9 67.7,16.5 C67.3,15.3 66.3,14.4 65,14.4 C60.1,14.4 55.7,23.5 55.7,30.5 C55.7,32.4 56.3,33.8 57.6,33.8 Z M63.2,34.8 C63.2,33.6 63.9,30.6 64.7,28.2 C61.6,34.5 58,39 53.8,39 C50.2,39 48.2,36.2 48.2,31.5 C48.2,22.2 55.4,12.4 64.3,12.4 C66.9,12.4 68.7,13.4 70,14.7 L74.9,12.3 L76.5,12.3 L74.7,18.4 L71.2,32 C71,32.9 70.8,33.6 70.8,34 C70.8,34.5 71,34.7 71.5,34.7 C72.4,34.7 73.6,33.6 75.5,31.2 L76.6,32.1 C73.3,36.7 71,39 67.6,39 C64.8,39.1 63.2,37.4 63.2,34.8 Z M91.9,12.5 L89.8,20.1 L87.6,26.9 C92.5,16.8 95,12.5 98.4,12.5 C100.4,12.5 101.6,13.9 101.6,16 C101.6,18.7 99.7,20.8 97.5,21.7 L97.1,21.7 C97.1,20.5 96.8,19.5 95.4,19.5 C91.9,19.5 87.7,27.4 85.3,38.7 L77.7,38.7 L83,17.4 L80.4,15.6 L80.6,14.5 L90.7,12.4 L91.9,12.4 L91.9,12.5 Z M115.2,14.2 C111.5,14.2 108.1,22.4 108.1,28.6 C108.1,32.4 109.4,34.8 112.2,34.8 C114.5,34.8 116.2,33.6 118.6,30.8 L119.6,31.8 C117.1,35.9 113.4,39 108.8,39 C103.6,39 100.4,35.4 100.4,29.9 C100.4,21.3 107.3,12.4 116,12.4 C119.7,12.4 122.3,13.8 122.3,16.9 C122.3,18.9 121,20.2 119.1,20.7 L117.2,20.7 C117.6,17.3 117.5,14.2 115.2,14.2 Z M136.3,4.9 L151.7,4.9 C159.2,4.9 163.3,8.6 163.3,13.5 C163.3,21.5 156.3,25.4 147,25.4 L143.7,25.4 L142,33.2 C141.4,35.8 142.6,36.5 147,36.7 L146.6,38.6 L129,38.6 L129.4,36.8 C132.8,36.4 133.2,36.1 133.7,33.5 L138.7,10.1 C139.3,7.5 138.8,7.1 135.7,6.8 L136.3,4.9 Z M147.7,7 L144.2,23.2 L145.8,23.2 C150.9,23.2 155.2,20 155.2,13.6 C155.2,9.7 153.2,7.1 149.1,7.1 L147.7,7.1 L147.7,7 Z M171.4,33.8 C174.2,33.8 178.7,26.9 181.5,16.5 C181.1,15.3 180.1,14.4 178.8,14.4 C173.9,14.4 169.5,23.5 169.5,30.5 C169.4,32.4 170,33.8 171.4,33.8 Z M176.9,34.8 C176.9,33.6 177.6,30.6 178.4,28.2 C175.3,34.5 171.7,39 167.5,39 C163.9,39 161.9,36.2 161.9,31.5 C161.9,22.2 169.1,12.4 178,12.4 C180.6,12.4 182.4,13.4 183.7,14.7 L188.6,12.3 L190.2,12.3 L188.4,18.4 L184.9,32 C184.7,32.9 184.5,33.6 184.5,34 C184.5,34.5 184.7,34.7 185.2,34.7 C186.1,34.7 187.3,33.6 189.2,31.2 L190.3,32.1 C187,36.7 184.7,39 181.3,39 C178.5,39.1 176.9,37.4 176.9,34.8 Z M205.6,12.5 L203.5,20.1 L201.3,26.9 C206.2,16.8 208.7,12.5 212.1,12.5 C214.1,12.5 215.3,13.9 215.3,16 C215.3,18.7 213.4,20.8 211.2,21.7 L210.8,21.7 C210.8,20.5 210.5,19.5 209.1,19.5 C205.6,19.5 201.4,27.4 199,38.7 L191.4,38.7 L196.7,17.5 L194.1,15.7 L194.3,14.6 L204.4,12.5 L205.6,12.5 Z M227,15.9 L223.2,31.2 C222.9,32.3 222.8,33 222.8,33.6 C222.8,34.4 223.1,34.9 224,34.9 C225.5,34.9 227.1,33.8 229.8,30.7 L230.9,31.5 C227.3,36.4 224,39 220.3,39 C217.2,39 215.3,36.9 215.3,34.2 C215.3,33.1 215.4,32.2 215.7,30.8 L219.4,15.9 L216.4,15.9 L216.8,14.4 C220.9,13.1 224.9,10 227.4,6.7 L229.2,6.7 L227.6,13.5 L232.9,13.5 L232.3,15.9 L227,15.9 Z M246.3,12.5 L244.2,20.1 L242,26.9 C246.9,16.8 249.4,12.5 252.8,12.5 C254.8,12.5 256,13.9 256,16 C256,18.7 254.1,20.8 251.9,21.7 L251.5,21.7 C251.5,20.5 251.2,19.5 249.8,19.5 C246.3,19.5 242.1,27.4 239.7,38.7 L232.1,38.7 L237.4,17.5 L234.8,15.7 L235,14.6 L245.1,12.5 L246.3,12.5 Z M266.2,9.9 C263.7,9.9 262.1,8.1 262.1,6.1 C262.1,3.8 263.8,1.8 266.5,1.8 C269,1.8 270.6,3.5 270.6,5.6 C270.6,7.9 268.8,9.9 266.2,9.9 Z M256.4,31 L259.8,17.5 L257.2,15.7 L257.4,14.6 L267.4,12.5 L268.6,12.5 L263.8,32 C263.6,32.9 263.4,33.6 263.4,34 C263.4,34.5 263.6,34.7 264.1,34.7 C265,34.7 266.2,33.6 268.1,31.2 L269.2,32.1 C265.9,36.7 263.6,39 260.2,39 C257.4,39 255.9,37.2 255.9,34.9 C255.8,33.7 256,32.6 256.4,31 Z M280.3,33.8 C283.1,33.8 287.9,26.8 290.6,16.5 C290.3,15.3 289.2,14.4 287.9,14.4 C282.9,14.4 278.5,23.7 278.4,30.4 C278.4,32.3 278.9,33.8 280.3,33.8 Z M291.3,13.7 L293.2,5.6 L290.5,4.2 L290.8,3 L300.6,0.9 L301.8,0.9 L294.3,31.9 C294.1,32.8 293.9,33.5 293.9,33.9 C293.9,34.4 294.1,34.6 294.6,34.6 C295.5,34.6 296.7,33.5 298.6,31.1 L299.6,32 C296.4,36.6 294,38.9 290.6,38.9 C287.8,38.9 286.2,37.3 286.2,34.7 C286.2,33.5 286.9,30.3 287.7,27.8 C284.6,34.1 280.5,38.9 276.3,38.9 C272.7,38.9 270.6,36.1 270.6,31.4 C270.6,22.1 277.9,12.3 286.7,12.3 C288.7,12.5 290,12.9 291.3,13.7 Z M324.1,19.9 C324.1,26 318.4,29.8 311.7,29.8 C310.4,29.8 309.1,29.6 308,29.3 C307.2,29.8 306.7,30.4 306.7,31 C306.7,31.8 307.4,32 308.2,32.2 L316.6,34.3 C320.6,35.2 323.4,36.8 323.4,40.4 C323.4,46.1 317,49.3 309,49.3 C302.6,49.3 296.7,46.9 296.7,42.7 C296.7,39.5 300.5,38.2 303.8,37.8 C302.6,36.9 302.1,35.7 302.1,34.3 C302.1,31.8 304,30 306.9,28.7 C304.5,27.5 303.1,25.2 303.1,22.2 C303.1,16.2 308.8,12.4 315.4,12.4 C316.9,12.4 318.2,12.7 319.4,13.2 L328.3,12.9 L327.4,16 L325.2,16 L322.6,15.6 C323.5,16.8 324.1,18.4 324.1,19.9 Z M313.9,41.4 L304.6,38.8 C302.7,39.6 301.6,40.8 301.6,42.6 C301.6,45.4 304.7,47.4 309.3,47.4 C313.9,47.4 316.8,46.1 316.8,43.9 C316.8,42.4 315.7,41.9 313.9,41.4 Z M317.1,18.1 C317.1,16 316.6,14.3 314.9,14.3 C312.3,14.3 309.8,19.1 309.8,24.3 C309.8,26.4 310.3,28.2 312,28.2 C314.6,28.2 317.1,23.4 317.1,18.1 Z M348.9,17.8 C348.9,23.5 342.2,25.7 334,27.1 C334,27.5 334,27.9 334,28.3 C334,32.6 335.9,34.9 339,34.9 C341.5,34.9 343.7,33.5 346,30.8 L347,31.7 C343.8,36.5 340.1,39.2 335.1,39.2 C329.9,39.2 326.4,35.5 326.4,29.8 C326.4,21.2 333.3,12.6 342.1,12.6 C346.7,12.5 348.9,14.9 348.9,17.8 Z M341.2,14.3 C337.9,14.3 334.9,20.2 334.1,25.5 C340.1,24.1 343.1,21 343.1,16.7 C343.2,15.3 342.6,14.3 341.2,14.3 Z" id="Marc-Partridge" fill="#E6C4B0"></path>
    </g>
</svg>