<svg width="211" height="31" viewBox="0 0 211 31" fill="none" xmlns="http://www.w3.org/2000/svg">
<path d="M15.5795 2.49091L21.0341 2.81818V23H15.5795V12.8182L12.2341 19.0364H9.14318L5.83409 12.8182V23H0.379545V2.81818L5.83409 2.49091L10.7068 11.2182L15.5795 2.49091ZM38.3807 14.8545C38.3807 16.8545 38.6352 17.7636 39.908 17.7636V22.6727C36.7443 23.5455 34.2352 22.8545 33.2898 19.9455C32.5989 21.4 31.508 22.7455 29.8716 23C26.2352 23.5818 23.5443 20.0182 23.5443 15.3636C23.5443 10.6 26.4534 6.30909 30.017 6.96364C31.4716 7.21818 32.3807 8.34546 32.9989 9.65455V8.78182L33.1443 6.78182L38.417 7.07273L38.3807 14.8545ZM31.2534 18.4182C31.8716 18.4182 32.417 18.0909 32.9261 17.5818V17.0364L32.9625 12.6C32.3807 11.9818 31.7625 11.6182 31.108 11.6182C29.9443 11.6182 29.1443 13.1455 29.1443 15.4364C29.1443 17.1091 29.8352 18.4182 31.2534 18.4182ZM48.0386 9.25455C48.8023 7.65455 50.075 6.56364 52.2205 6.78182L52.1477 12.6727C49.0205 12.3091 48.075 13.9091 48.0386 17.7636V23H42.5841V7.03636L47.675 6.74545L48.0386 9.25455ZM61.171 23.1818C56.4074 23.1818 53.8256 19.3273 53.8256 15.1091V14.8909C53.8256 10.6727 56.4074 6.81818 61.171 6.81818C63.7165 6.81818 66.2983 8.12727 67.6437 10.8182L63.2074 13.5455C62.8801 12.4545 62.1165 11.8364 61.171 11.8364C59.571 11.8364 59.0256 13.2909 59.0256 14.8909V15.1091C59.0256 16.7091 59.571 18.1636 61.171 18.1636C62.0801 18.1636 62.8801 17.6182 63.171 16.5273L67.571 19.3636C66.0801 22.0909 63.4619 23.1818 61.171 23.1818ZM87.9284 2.45455C91.492 2.45455 95.1284 5.21818 95.1284 10.0545C95.1284 14.1636 92.5102 17.4 88.3284 17.5091H86.1102V23H80.692V2.85455C83.092 2.70909 85.5284 2.6 87.9284 2.45455ZM86.1102 12.6364H87.5284C88.5466 12.6364 89.7102 11.8 89.7102 10.3818C89.7102 9.03636 89.1648 7.83636 87.492 7.83636L86.1102 7.94545V12.6364ZM111.756 14.8545C111.756 16.8545 112.01 17.7636 113.283 17.7636V22.6727C110.119 23.5455 107.61 22.8545 106.665 19.9455C105.974 21.4 104.883 22.7455 103.247 23C99.6102 23.5818 96.9193 20.0182 96.9193 15.3636C96.9193 10.6 99.8284 6.30909 103.392 6.96364C104.847 7.21818 105.756 8.34546 106.374 9.65455V8.78182L106.519 6.78182L111.792 7.07273L111.756 14.8545ZM104.628 18.4182C105.247 18.4182 105.792 18.0909 106.301 17.5818V17.0364L106.337 12.6C105.756 11.9818 105.137 11.6182 104.483 11.6182C103.319 11.6182 102.519 13.1455 102.519 15.4364C102.519 17.1091 103.21 18.4182 104.628 18.4182ZM121.414 9.25455C122.177 7.65455 123.45 6.56364 125.595 6.78182L125.523 12.6727C122.395 12.3091 121.45 13.9091 121.414 17.7636V23H115.959V7.03636L121.05 6.74545L121.414 9.25455ZM137.019 11.9091H134.619V14.4909C134.619 16.4909 134.764 17.5818 135.928 17.7273C136.291 17.7636 136.655 17.7636 136.946 17.7636V22.9636C136.328 23 135.891 23.0364 135.419 23.0364C131.382 23.0364 129.164 21.6182 129.164 16.3091V11.9091H127.382V7H129.201V2.74545L134.655 2.45455V7H137.019V11.9091ZM145.695 9.25455C146.459 7.65455 147.731 6.56364 149.877 6.78182L149.804 12.6727C146.677 12.3091 145.731 13.9091 145.695 17.7636V23H140.24V7.03636L145.331 6.74545L145.695 9.25455ZM154.9 6.27273C153.155 6.27273 151.918 5.07273 151.918 3.25455C151.918 1.54546 153.155 0.272728 154.9 0.272728C156.682 0.272728 157.918 1.54546 157.918 3.25455C157.918 5.07273 156.682 6.27273 154.9 6.27273ZM152.209 23L152.245 7.65455L157.7 7.36364L157.664 23H152.209ZM169.843 1.50909L175.297 1.76364V23H170.206L169.843 20.4909C169.152 21.7273 168.134 22.7818 166.715 23C163.079 23.5818 160.388 20.0182 160.388 15.3636C160.388 10.6 163.297 6.30909 166.861 6.96364C168.315 7.21818 169.261 8.38182 169.843 9.65455V1.50909ZM168.097 18.4182C168.752 18.4182 169.334 18.0545 169.843 17.5091V12.6364C169.261 11.9818 168.643 11.6182 167.952 11.6182C166.788 11.6182 165.988 13.1455 165.988 15.4364C165.988 17.1091 166.679 18.4182 168.097 18.4182ZM193.481 7.21818L193.336 11.9455L190.936 11.8C191.518 12.8545 191.918 14.0545 191.918 15.3636C191.918 16.8182 191.445 18.2727 190.609 19.4364C191.445 20.5273 192.027 21.9091 191.99 23.3636C191.954 27.3273 188.936 30.6364 184.536 30.6364C180.463 30.6364 178.099 27.6182 177.409 25.0364L181.772 23.2909C181.954 23.9818 182.827 25.6909 184.536 25.6909C185.809 25.6909 186.609 24.7455 186.609 23.3636C186.609 22.8909 186.536 22.4909 186.39 22.1636C185.845 22.2727 185.299 22.3455 184.718 22.3455C180.172 22.3455 177.299 18.6 177.299 14.5636C177.299 10.8909 180.172 6.81818 184.718 6.81818H184.79L193.481 7.21818ZM182.463 14.5636C182.463 16.0909 183.045 17.6909 184.718 17.6909C186.39 17.6909 187.009 16.0909 187.009 14.5636C187.009 13.0727 186.39 11.4727 184.718 11.4727C183.045 11.4727 182.463 13.0727 182.463 14.5636ZM202.53 23.1818C197.839 23.1818 195.076 19.1818 195.076 15C195.076 10.8182 197.839 6.81818 202.53 6.81818C207.221 6.81818 210.021 10.6727 210.021 14.5273C210.021 15.8364 209.985 15.9455 209.948 16.2727H200.421V16.4909C200.457 17.9818 201.585 18.5273 202.457 18.5273C203.403 18.5273 204.057 18.0909 204.421 17.2182L209.366 18.6727C208.276 21.2182 205.876 23.1818 202.53 23.1818ZM200.457 13.4364H204.457C204.421 12.1273 203.366 11.4727 202.457 11.4727C201.548 11.4727 200.457 12.1273 200.457 13.4364Z" fill="#F7F4F1"/>
</svg>
