<?xml version="1.0" standalone="no"?>
<!DOCTYPE svg PUBLIC "-//W3C//DTD SVG 20010904//EN"
 "http://www.w3.org/TR/2001/REC-SVG-20010904/DTD/svg10.dtd">
<svg version="1.0" xmlns="http://www.w3.org/2000/svg"
 width="700.000000pt" height="700.000000pt" viewBox="0 0 700.000000 700.000000"
 preserveAspectRatio="xMidYMid meet">
<metadata>
Created by potrace 1.14, written by Peter Selinger 2001-2017
</metadata>
<g transform="translate(0.000000,700.000000) scale(0.100000,-0.100000)"
fill="#000000" stroke="none">
<path d="M922 6639 c-279 -47 -519 -292 -562 -575 -7 -47 -10 -558 -8 -1562
l3 -1493 1380 1373 c811 807 1409 1394 1450 1424 331 242 715 324 1112 239
638 -136 1301 -615 1732 -1250 157 -231 182 -299 144 -386 -30 -67 -58 -88
-235 -178 -419 -215 -783 -418 -1201 -669 -156 -94 -206 -129 -203 -141 11
-35 46 -254 62 -381 22 -182 30 -645 15 -836 -47 -596 -197 -1133 -461 -1662
l-96 -193 1010 3 c933 3 1016 5 1070 21 243 72 427 259 493 498 17 60 18 209
18 2629 0 2420 -1 2569 -18 2629 -64 232 -228 406 -462 488 l-80 28 -2555 1
c-1450 1 -2578 -2 -2608 -7z"/>
<path d="M3827 5675 c-110 -21 -241 -73 -344 -136 -81 -50 -208 -173 -1608
-1569 l-1520 -1515 0 -770 0 -770 28 -80 c50 -141 128 -252 235 -335 126 -97
242 -138 418 -147 l111 -6 96 70 c749 537 1205 1345 1366 2418 27 177 34 196
81 239 110 99 278 50 315 -92 11 -41 10 -68 -6 -178 -101 -695 -317 -1296
-642 -1784 -145 -217 -237 -330 -431 -528 l-140 -142 907 0 906 0 66 110 c279
470 460 995 536 1555 26 193 37 642 20 848 -15 171 -44 371 -77 525 -30 139
-30 173 -2 230 17 37 38 56 122 110 267 174 862 516 1289 742 86 46 157 89
157 94 0 6 -36 58 -79 116 -371 495 -902 868 -1399 981 -117 27 -304 33 -405
14z m527 -575 c61 -23 124 -80 152 -138 26 -54 31 -162 9 -219 -58 -150 -234
-220 -378 -149 -184 89 -212 326 -55 460 75 65 176 82 272 46z"/>
</g>
</svg>
